<svg xmlns="http://www.w3.org/2000/svg" xmlns:xlink="http://www.w3.org/1999/xlink" version="1.1" x="0px" y="0px" viewBox="0 0 90 88" style="enable-background:new 0 0 90 70.4;" xml:space="preserve"><title>room_18</title><g><g><path d="M89.8,0.2C89.7,0.1,89.5,0,89.4,0L45,6.8L0.6,0C0.5,0,0.3,0.1,0.2,0.2C0.1,0.3,0,0.4,0,0.6v46.1c0,0.2,0.1,0.4,0.3,0.5    l44.4,23.1c0.2,0.1,0.4,0.1,0.5,0l44.4-23.1c0.2-0.1,0.3-0.3,0.3-0.5V0.6C90,0.4,89.9,0.3,89.8,0.2z M1.4,1.4l42.9,6.8v30.2    l-10.7,1.8V14.7c0-0.3-0.2-0.7-0.6-0.7l-14.2-1.4c-0.4,0-0.7,0.2-0.7,0.6c0,0,0,0.1,0,0.1v29.6L1.4,45.8V1.4z M26.4,14.7l5.8,0.6    v25.2L26.4,14.7z M7.8,49.6L3,47.1l42-7.3l3,0.5L8.2,49.8L7.8,49.6z M8.7,50.1L49,40.5l4.9,0.8L14,52.9L8.7,50.1z M14.6,53.1    l40.2-11.6l5,0.9L20.1,56L14.6,53.1z M20.6,56.2l40-13.8l5.9,1L26.3,59.2L20.6,56.2z M26.8,59.4l40.4-15.8l6.3,1.1L32.4,62.4    L26.8,59.4z M32.8,62.6l41.4-17.7l5.7,1L38.7,65.7L32.8,62.6z M45,69l-5.9-3.1L80.5,46l6.5,1.1L45,69z M88.6,45.8l-42.8-7.4V8.2    l42.8-6.8V45.8z"/></g></g><text x="0" y="85.4" fill="#000000" font-size="5px" font-weight="bold" font-family="'Helvetica Neue', Helvetica, Arial-Unicode, Arial, Sans-serif">Created by Batibull</text><text x="0" y="90.4" fill="#000000" font-size="5px" font-weight="bold" font-family="'Helvetica Neue', Helvetica, Arial-Unicode, Arial, Sans-serif">from the Noun Project</text></svg>